<svg xmlns="http://www.w3.org/2000/svg" width="31" height="31" viewBox="0 0 31 31" fill="white">
    <path d="M29.8514 6.18673L24.8133 1.14865C24.5093 0.842975 24.1478 0.600635 23.7495 0.435655C23.3513 0.270675 22.9242 0.186333 22.4932 0.187512H4.5625C3.40218 0.187512 2.28938 0.648448 1.46891 1.46892C0.648436 2.28939 0.1875 3.40219 0.1875 4.56251V26.4375C0.1875 27.5978 0.648436 28.7106 1.46891 29.5311C2.28938 30.3516 3.40218 30.8125 4.5625 30.8125H26.4375C27.5978 30.8125 28.7106 30.3516 29.5311 29.5311C30.3516 28.7106 30.8125 27.5978 30.8125 26.4375V8.50685C30.8137 8.07578 30.7293 7.64876 30.5644 7.25051C30.3994 6.85225 30.157 6.49068 29.8514 6.18673ZM6.20312 5.65626H18.2344C18.3794 5.65626 18.5185 5.71388 18.6211 5.81644C18.7236 5.919 18.7812 6.0581 18.7812 6.20314V9.48439C18.7812 9.62943 18.7236 9.76853 18.6211 9.87109C18.5185 9.97365 18.3794 10.0313 18.2344 10.0313H6.20312C6.05808 10.0313 5.91898 9.97365 5.81643 9.87109C5.71387 9.76853 5.65625 9.62943 5.65625 9.48439V6.20314C5.65625 6.0581 5.71387 5.919 5.81643 5.81644C5.91898 5.71388 6.05808 5.65626 6.20312 5.65626ZM15.7563 27.5251C14.6541 27.5769 13.5619 27.294 12.6234 26.7135C11.6849 26.1331 10.944 25.2824 10.4979 24.2731C10.0518 23.2638 9.92148 22.1432 10.1241 21.0585C10.3266 19.9737 10.8526 18.9757 11.6329 18.1954C12.4132 17.4151 13.4112 16.8891 14.4959 16.6866C15.5807 16.484 16.7013 16.6143 17.7106 17.0604C18.7199 17.5065 19.5706 18.2474 20.151 19.186C20.7314 20.1245 21.0144 21.2166 20.9626 22.3189C20.8978 23.6787 20.3285 24.9657 19.3658 25.9283C18.4032 26.891 17.1162 27.4603 15.7563 27.5251Z" stroke="none" />
    <path d="M15.5 25.3438C17.3122 25.3438 18.7812 23.8747 18.7812 22.0625C18.7812 20.2503 17.3122 18.7812 15.5 18.7812C13.6878 18.7812 12.2188 20.2503 12.2188 22.0625C12.2188 23.8747 13.6878 25.3438 15.5 25.3438Z" stroke="none" />
</svg>