<svg xmlns="http://www.w3.org/2000/svg" width="35" height="35" viewBox="0 0 35 35" stroke="white">
    <path d="M23.3789 30.3516H26.5234C27.5387 30.3516 28.5124 29.9482 29.2303 29.2303C29.9482 28.5124 30.3516 27.5387 30.3516 26.5234V23.3789M30.3516 11.6211V8.47656C30.3516 7.46128 29.9482 6.48758 29.2303 5.76967C28.5124 5.05176 27.5387 4.64844 26.5234 4.64844H23.3789M11.6211 30.3516H8.47656C7.46128 30.3516 6.48758 29.9482 5.76967 29.2303C5.05176 28.5124 4.64844 27.5387 4.64844 26.5234V23.3789M4.64844 11.6211V8.47656C4.64844 7.46128 5.05176 6.48758 5.76967 5.76967C6.48758 5.05176 7.46128 4.64844 8.47656 4.64844H11.6211" stroke-width="3.00781" stroke-linecap="round" stroke-linejoin="round" fill="none" />
</svg>