<svg xmlns="http://www.w3.org/2000/svg" width="32" height="32" viewBox="0 0 25 25" fill="white">
    <path fill-rule="evenodd" clip-rule="evenodd"
          d="M13.8882 21.5554C13.3191 22.1246 12.8076 22.6362 12.3365 23.0769H24.0385C24.5695 23.0769 25 23.5074 25 24.0385C25 24.5695 24.5695 25 24.0385 25H8.65385C8.63033 25 8.60701 24.9991 8.58392 24.9974C7.68149 24.9629 6.91588 24.5729 6.16491 24C5.41185 23.4254 4.57101 22.5846 3.54191 21.5554L3.44454 21.4581C2.41541 20.429 1.57455 19.5882 1 18.8351C0.399474 18.0479 0 17.2449 0 16.2849C0 15.325 0.399474 14.5218 1 13.7347C1.57456 12.9817 2.41541 12.1409 3.44454 11.1118L11.1118 3.44454C12.1409 2.41542 12.9817 1.57455 13.7347 1C14.5218 0.399474 15.325 0 16.2849 0C17.2449 0 18.0479 0.399474 18.8351 1C19.5882 1.57456 20.429 2.41541 21.4581 3.44454L21.5554 3.54191C22.5846 4.57101 23.4254 5.41185 24 6.16491C24.6005 6.952 25 7.75515 25 8.71508C25 9.67499 24.6005 10.4782 24 11.2653C23.4255 12.0183 22.5846 12.8591 21.5555 13.8881L13.8882 21.5554ZM12.4229 4.85306C13.5127 3.76331 14.2631 3.01583 14.9013 2.52888C15.5173 2.05887 15.9145 1.92308 16.2849 1.92308C16.6553 1.92308 17.0526 2.05887 17.6686 2.52888C18.3068 3.01583 19.0572 3.76331 20.1469 4.85306C21.2367 5.94283 21.9842 6.69319 22.4712 7.33141C22.9412 7.94744 23.0769 8.34469 23.0769 8.71508C23.0769 9.08545 22.9412 9.4827 22.4712 10.0987C21.9842 10.7369 21.2367 11.4873 20.1469 12.5771L14.7709 17.9531L7.04695 10.2291L12.4229 4.85306ZM8.71508 23.0769C9.08545 23.0769 9.4827 22.9412 10.0987 22.4712C10.7369 21.9842 11.4873 21.2367 12.5771 20.1469L13.4112 19.3128L5.68713 11.5888L4.85306 12.4229C3.76331 13.5127 3.01583 14.2631 2.52888 14.9013C2.05887 15.5173 1.92308 15.9145 1.92308 16.2849C1.92308 16.6553 2.05887 17.0526 2.52888 17.6686C3.01583 18.3068 3.76331 19.0572 4.85306 20.1469C5.94283 21.2367 6.69319 21.9842 7.33141 22.4712C7.94744 22.9412 8.34469 23.0769 8.71508 23.0769Z"
          stroke="none"/>
</svg>