<svg xmlns="http://www.w3.org/2000/svg" width="35" height="35" viewBox="0 0 35 35" fill="none">
    <path d="M13.125 31.7051V28.4238M6.16465 28.8217L8.48477 26.5016M3.28125 21.8613H6.5625" stroke="white" stroke-width="2.1875" stroke-miterlimit="10" stroke-linecap="round" fill="none"/>
    <path d="M18.2897 21.3511L16.1631 23.4777C16.0615 23.5793 15.9809 23.6999 15.9259 23.8326C15.8709 23.9653 15.8426 24.1075 15.8426 24.2512C15.8426 24.3949 15.8709 24.5371 15.9259 24.6698C15.9809 24.8025 16.0615 24.9231 16.1631 25.0247L19.257 28.1179C19.4621 28.3229 19.7402 28.438 20.0302 28.438C20.3201 28.438 20.5982 28.3229 20.8033 28.1179L22.9306 25.9913C22.9561 25.9659 22.9762 25.9357 22.99 25.9025C23.0038 25.8693 23.0108 25.8338 23.0108 25.7978C23.0108 25.7619 23.0038 25.7263 22.99 25.6931C22.9762 25.6599 22.9561 25.6298 22.9306 25.6044L18.6766 21.3511C18.6512 21.3256 18.6211 21.3055 18.5879 21.2917C18.5547 21.2779 18.5191 21.2709 18.4832 21.2709C18.4473 21.2709 18.4117 21.2779 18.3785 21.2917C18.3453 21.3055 18.3151 21.3256 18.2897 21.3511ZM9.00926 12.0699L6.8826 14.1972C6.67764 14.4023 6.5625 14.6804 6.5625 14.9704C6.5625 15.2603 6.67764 15.5384 6.8826 15.7435L9.97586 18.8375C10.0774 18.9391 10.198 19.0197 10.3307 19.0746C10.4634 19.1296 10.6057 19.1579 10.7493 19.1579C10.893 19.1579 11.0352 19.1296 11.168 19.0746C11.3007 19.0197 11.4213 18.9391 11.5228 18.8375L13.6495 16.7108C13.6749 16.6854 13.6951 16.6553 13.7088 16.6221C13.7226 16.5889 13.7297 16.5533 13.7297 16.5174C13.7297 16.4814 13.7226 16.4458 13.7088 16.4127C13.6951 16.3795 13.6749 16.3493 13.6495 16.3239L9.39617 12.0699C9.37078 12.0445 9.34062 12.0243 9.30743 12.0105C9.27423 11.9968 9.23865 11.9897 9.20272 11.9897C9.16678 11.9897 9.1312 11.9968 9.09801 12.0105C9.06481 12.0243 9.03465 12.0445 9.00926 12.0699ZM29.3154 5.69402C28.4015 4.77903 27.3163 4.05308 26.1217 3.55765C24.9272 3.06222 23.6467 2.80702 22.3535 2.80664C21.0603 2.80626 19.7797 3.0607 18.5848 3.55543C17.39 4.05015 16.3043 4.77547 15.3899 5.68992L10.9425 10.1367C10.917 10.1621 10.8969 10.1922 10.8831 10.2254C10.8693 10.2586 10.8623 10.2942 10.8623 10.3302C10.8623 10.3661 10.8693 10.4017 10.8831 10.4349C10.8969 10.4681 10.917 10.4982 10.9425 10.5236L15.1965 14.7769C15.2219 14.8024 15.252 14.8225 15.2852 14.8363C15.3184 14.85 15.354 14.8571 15.3899 14.8571C15.4259 14.8571 15.4614 14.85 15.4946 14.8363C15.5278 14.8225 15.558 14.8024 15.5834 14.7769L20.0267 10.3302C20.3348 10.0221 20.7011 9.77851 21.1043 9.61354C21.5075 9.44857 21.9395 9.36554 22.3751 9.3693C22.8108 9.37305 23.2413 9.46351 23.6416 9.63541C24.0419 9.8073 24.4039 10.0572 24.7066 10.3705C25.9576 11.6638 25.9009 13.7365 24.6287 15.0087L20.2236 19.4151C20.1982 19.4405 20.178 19.4707 20.1643 19.5039C20.1505 19.5371 20.1434 19.5726 20.1434 19.6086C20.1434 19.6445 20.1505 19.6801 20.1643 19.7133C20.178 19.7465 20.1982 19.7766 20.2236 19.802L24.4769 24.056C24.5023 24.0815 24.5325 24.1016 24.5657 24.1154C24.5989 24.1291 24.6345 24.1362 24.6704 24.1362C24.7063 24.1362 24.7419 24.1291 24.7751 24.1154C24.8083 24.1016 24.8385 24.0815 24.8638 24.056L29.2443 19.6756C33.0977 15.8242 33.1661 9.54949 29.3154 5.69402Z" fill="white" stroke="none"/>
</svg>