<svg xmlns="http://www.w3.org/2000/svg" width="29" height="29" viewBox="0 0 29 29" fill="white">
    <path d="M14.5 0.28125C6.65986 0.28125 0.28125 6.65986 0.28125 14.5C0.28125 22.3401 6.65986 28.7188 14.5 28.7188C22.3401 28.7188 28.7188 22.3401 28.7188 14.5C28.7188 6.65986 22.3401 0.28125 14.5 0.28125ZM19.9688 15.5938H15.5938V19.9688C15.5938 20.2588 15.4785 20.537 15.2734 20.7421C15.0683 20.9473 14.7901 21.0625 14.5 21.0625C14.2099 21.0625 13.9317 20.9473 13.7266 20.7421C13.5215 20.537 13.4062 20.2588 13.4062 19.9688V15.5938H9.03125C8.74117 15.5938 8.46297 15.4785 8.25785 15.2734C8.05273 15.0683 7.9375 14.7901 7.9375 14.5C7.9375 14.2099 8.05273 13.9317 8.25785 13.7266C8.46297 13.5215 8.74117 13.4062 9.03125 13.4062H13.4062V9.03125C13.4062 8.74117 13.5215 8.46297 13.7266 8.25785C13.9317 8.05273 14.2099 7.9375 14.5 7.9375C14.7901 7.9375 15.0683 8.05273 15.2734 8.25785C15.4785 8.46297 15.5938 8.74117 15.5938 9.03125V13.4062H19.9688C20.2588 13.4062 20.537 13.5215 20.7421 13.7266C20.9473 13.9317 21.0625 14.2099 21.0625 14.5C21.0625 14.7901 20.9473 15.0683 20.7421 15.2734C20.537 15.4785 20.2588 15.5938 19.9688 15.5938Z"
          stroke="none"/>
</svg>