<svg xmlns="http://www.w3.org/2000/svg" width="32" height="32" viewBox="0 0 29 29" fill="none" stroke="white">
    <path d="M21.515 5.83725L2.9124 24.4857L1.78516 27.2146L4.51406 26.0873L23.1625 7.48471L21.515 5.83725ZM25.2372 2.11577L24.4312 2.92104L26.0787 4.5685L26.8847 3.76254C27.0961 3.55091 27.2149 3.26397 27.2149 2.96479C27.2149 2.66561 27.0961 2.37867 26.8847 2.16703L26.8334 2.11577C26.7286 2.01095 26.6042 1.92781 26.4672 1.87108C26.3303 1.81435 26.1835 1.78516 26.0353 1.78516C25.8871 1.78516 25.7403 1.81435 25.6034 1.87108C25.4664 1.92781 25.342 2.01095 25.2372 2.11577Z"
          stroke-width="3.00781" stroke-linecap="round" stroke-linejoin="round" fill="none"/>
</svg>