<svg width="141" height="141" viewBox="0 0 141 141" fill="none" xmlns="http://www.w3.org/2000/svg">
<path d="M88.0725 70.4991L137.242 21.3292C139.576 18.9997 140.889 15.8386 140.892 12.5413C140.895 9.24403 139.587 6.08063 137.258 3.74704C134.928 1.41344 131.767 0.100808 128.47 0.0978957C125.173 0.0949838 122.009 1.40203 119.676 3.73151L70.5059 52.9014L21.336 3.73151C19.0024 1.39792 15.8374 0.0869141 12.5372 0.0869141C9.23697 0.0869141 6.07194 1.39792 3.73835 3.73151C1.40475 6.0651 0.09375 9.23014 0.09375 12.5303C0.09375 15.8305 1.40475 18.9956 3.73835 21.3292L52.9083 70.4991L3.73835 119.669C1.40475 122.003 0.09375 125.168 0.09375 128.468C0.09375 131.768 1.40475 134.933 3.73835 137.267C6.07194 139.6 9.23697 140.911 12.5372 140.911C15.8374 140.911 19.0024 139.6 21.336 137.267L70.5059 88.0967L119.676 137.267C122.009 139.6 125.174 140.911 128.475 140.911C131.775 140.911 134.94 139.6 137.273 137.267C139.607 134.933 140.918 131.768 140.918 128.468C140.918 125.168 139.607 122.003 137.273 119.669L88.0725 70.4991Z" fill="#EB445A"/>
</svg>
