<svg width="32" height="32" viewBox="0 0 25 31" fill="none" xmlns="http://www.w3.org/2000/svg">
<path d="M16.875 7.98047C16.875 7.98047 18.5402 7.16016 12.5 7.16016C10.3368 7.16016 8.22212 7.80163 6.42346 9.00346C4.62479 10.2053 3.22291 11.9135 2.39507 13.9121C1.56724 15.9106 1.35064 18.1098 1.77267 20.2315C2.19469 22.3531 3.23639 24.302 4.76602 25.8316C6.29566 27.3613 8.24454 28.403 10.3662 28.825C12.4879 29.247 14.687 29.0304 16.6856 28.2026C18.6842 27.3748 20.3924 25.9729 21.5942 24.1742C22.796 22.3755 23.4375 20.2609 23.4375 18.0977" stroke="white" stroke-width="2.1875" stroke-miterlimit="10" stroke-linecap="round"/>
<path d="M12.5 1.96484L17.9688 7.43359L12.5 12.9023" stroke="white" stroke-width="2.1875" stroke-linecap="round" stroke-linejoin="round"/>
</svg>
