<svg xmlns="http://www.w3.org/2000/svg" width="35" height="25" viewBox="0 0 35 25" fill="white">
    <path d="M20.0029 22.8754L11.7998 1.0004C11.6923 0.713719 11.4999 0.466667 11.2483 0.292263C10.9966 0.11786 10.6978 0.0244141 10.3916 0.0244141C10.0854 0.0244141 9.78655 0.11786 9.53491 0.292263C9.28328 0.466667 9.09086 0.713719 8.98339 1.0004L0.780264 22.8754C0.644589 23.2479 0.661489 23.6589 0.827287 24.019C0.993086 24.3791 1.29437 24.6592 1.6656 24.7983C2.03684 24.9375 2.44799 24.9244 2.80962 24.7619C3.17125 24.5995 3.45411 24.3008 3.59667 23.9309L6.06854 17.3397C6.07828 17.3136 6.09574 17.2911 6.11858 17.2753C6.14142 17.2594 6.16856 17.2508 6.19638 17.2508H14.5868C14.6146 17.2508 14.6418 17.2594 14.6646 17.2753C14.6874 17.2911 14.7049 17.3136 14.7146 17.3397L17.1865 23.9309C17.3291 24.3008 17.6119 24.5995 17.9736 24.7619C18.3352 24.9244 18.7463 24.9375 19.1176 24.7983C19.4888 24.6592 19.7901 24.3791 19.9559 24.019C20.1217 23.6589 20.1386 23.2479 20.0029 22.8754ZM7.29901 14.057L10.2638 6.15128C10.2736 6.12534 10.2911 6.10301 10.3139 6.08725C10.3368 6.07149 10.3638 6.06305 10.3916 6.06305C10.4193 6.06305 10.4464 6.07149 10.4693 6.08725C10.4921 6.10301 10.5096 6.12534 10.5194 6.15128L13.4842 14.0584C13.4919 14.0791 13.4945 14.1013 13.4918 14.1232C13.489 14.1451 13.4811 14.166 13.4685 14.1841C13.4559 14.2022 13.4392 14.2171 13.4196 14.2273C13.4001 14.2376 13.3784 14.2429 13.3563 14.243H7.42685C7.40479 14.2429 7.38307 14.2376 7.36354 14.2273C7.34401 14.2171 7.32725 14.2022 7.31469 14.1841C7.30213 14.166 7.29415 14.1451 7.29142 14.1232C7.28869 14.1013 7.29129 14.0791 7.29901 14.0584V14.057ZM27.3974 6.58673C24.5454 6.56622 21.9915 8.21847 20.9032 10.784C20.7473 11.1511 20.7436 11.5652 20.893 11.935C21.0423 12.3049 21.3325 12.6002 21.6996 12.7562C22.0667 12.9121 22.4808 12.9158 22.8506 12.7664C23.2205 12.6171 23.5158 12.3269 23.6718 11.9598C24.2788 10.5318 25.7068 9.60548 27.3167 9.59454C29.5261 9.5795 31.3096 11.4061 31.3096 13.6175C31.3096 13.6441 31.2992 13.6697 31.2807 13.6888C31.2623 13.708 31.237 13.7191 31.2104 13.72C29.712 13.7617 27.9347 13.8615 26.3487 14.0482C22.606 14.4884 20.3721 16.5289 20.3721 19.5067C20.3721 21.0919 20.9709 22.5145 22.0585 23.518C23.0791 24.4579 24.4736 24.9754 25.9775 24.9754C28.0967 24.9754 29.9212 24.4285 31.3055 23.3881H31.3096C31.3087 23.5856 31.3468 23.7813 31.4216 23.9641C31.4963 24.1469 31.6064 24.3132 31.7455 24.4534C31.8845 24.5937 32.0498 24.7052 32.2319 24.7815C32.4141 24.8579 32.6095 24.8976 32.807 24.8985C33.0045 24.8994 33.2002 24.8613 33.383 24.7865C33.5658 24.7117 33.732 24.6017 33.8723 24.4626C34.0126 24.3236 34.124 24.1582 34.2004 23.9761C34.2768 23.794 34.3165 23.5986 34.3174 23.4011V13.6257C34.3174 9.78527 31.2412 6.61476 27.3974 6.58673ZM25.9775 21.9676C24.7792 21.9676 23.3799 21.323 23.3799 19.5067C23.3799 18.7773 23.6417 18.2666 24.2296 17.8503C24.8017 17.4449 25.6788 17.1558 26.7001 17.0355C28.1438 16.8652 29.764 16.7716 31.153 16.7299C31.1716 16.7299 31.1899 16.7336 31.207 16.7409C31.224 16.7482 31.2394 16.7589 31.2522 16.7723C31.265 16.7858 31.2749 16.8016 31.2814 16.819C31.2878 16.8364 31.2907 16.8549 31.2897 16.8734C31.1045 20.2996 29.3586 21.9676 25.9775 21.9676Z" stroke="none" />
</svg>