<svg xmlns="http://www.w3.org/2000/svg" width="27" height="31" viewBox="0 0 27 31" fill="#EB445A">
    <path d="M25.1562 4.375H18.5938V2.73438C18.5938 2.00917 18.3057 1.31367 17.7929 0.80088C17.2801 0.288085 16.5846 0 15.8594 0H10.3906C9.66542 0 8.96992 0.288085 8.45713 0.80088C7.94433 1.31367 7.65625 2.00917 7.65625 2.73438V4.375H1.09375C0.803669 4.375 0.52547 4.49023 0.320352 4.69535C0.115234 4.90047 0 5.17867 0 5.46875C0 5.75883 0.115234 6.03703 0.320352 6.24215C0.52547 6.44727 0.803669 6.5625 1.09375 6.5625H2.25586L3.55469 27.4066C3.65176 29.2421 5.05859 30.625 6.83594 30.625H19.4141C21.2003 30.625 22.5791 29.2729 22.6953 27.4121L23.9941 6.5625H25.1562C25.4463 6.5625 25.7245 6.44727 25.9296 6.24215C26.1348 6.03703 26.25 5.75883 26.25 5.46875C26.25 5.17867 26.1348 4.90047 25.9296 4.69535C25.7245 4.49023 25.4463 4.375 25.1562 4.375ZM8.78897 26.25H8.75C8.46655 26.2502 8.19409 26.1403 7.99006 25.9435C7.78603 25.7468 7.66635 25.4785 7.65625 25.1952L7.10938 9.88272C7.09904 9.59264 7.20436 9.31033 7.40217 9.0979C7.59998 8.88548 7.87408 8.76033 8.16416 8.75C8.45424 8.73967 8.73655 8.84499 8.94897 9.0428C9.1614 9.24061 9.28654 9.5147 9.29688 9.80478L9.84375 25.1173C9.84896 25.2609 9.8258 25.4042 9.77559 25.5389C9.72539 25.6736 9.64912 25.7971 9.55116 25.9023C9.4532 26.0075 9.33546 26.0924 9.20467 26.152C9.07389 26.2117 8.93263 26.245 8.78897 26.25ZM14.2188 25.1562C14.2188 25.4463 14.1035 25.7245 13.8984 25.9296C13.6933 26.1348 13.4151 26.25 13.125 26.25C12.8349 26.25 12.5567 26.1348 12.3516 25.9296C12.1465 25.7245 12.0312 25.4463 12.0312 25.1562V9.84375C12.0312 9.55367 12.1465 9.27547 12.3516 9.07035C12.5567 8.86523 12.8349 8.75 13.125 8.75C13.4151 8.75 13.6933 8.86523 13.8984 9.07035C14.1035 9.27547 14.2188 9.55367 14.2188 9.84375V25.1562ZM16.4062 4.375H9.84375V2.73438C9.84293 2.66233 9.85651 2.59085 9.8837 2.52412C9.91089 2.4574 9.95114 2.39679 10.0021 2.34584C10.053 2.29489 10.1137 2.25464 10.1804 2.22745C10.2471 2.20026 10.3186 2.18668 10.3906 2.1875H15.8594C15.9314 2.18668 16.0029 2.20026 16.0696 2.22745C16.1363 2.25464 16.197 2.29489 16.2479 2.34584C16.2989 2.39679 16.3391 2.4574 16.3663 2.52412C16.3935 2.59085 16.4071 2.66233 16.4062 2.73438V4.375ZM18.5938 25.1952C18.5837 25.4785 18.464 25.7468 18.2599 25.9435C18.0559 26.1403 17.7835 26.2502 17.5 26.25H17.4604C17.3167 26.2449 17.1756 26.2115 17.0449 26.1518C16.9141 26.0921 16.7965 26.0072 16.6986 25.9021C16.6007 25.7969 16.5245 25.6734 16.4743 25.5388C16.4242 25.4041 16.401 25.2609 16.4062 25.1173L16.9531 9.80478C16.9582 9.66115 16.9916 9.51993 17.0513 9.38919C17.111 9.25845 17.1958 9.14075 17.301 9.0428C17.4062 8.94485 17.5297 8.86858 17.6643 8.81835C17.799 8.76811 17.9422 8.74488 18.0858 8.75C18.2295 8.75512 18.3707 8.78847 18.5014 8.84817C18.6322 8.90786 18.7499 8.99272 18.8478 9.0979C18.9458 9.20309 19.022 9.32653 19.0723 9.46119C19.1225 9.59585 19.1457 9.73908 19.1406 9.88272L18.5938 25.1952Z" stroke="none" />
</svg>