<svg width="32" height="32" viewBox="0 0 20 20" fill="none" xmlns="http://www.w3.org/2000/svg">
<path d="M19.0428 0.446806C18.4667 -0.129241 17.5362 -0.129241 16.9602 0.446806L9.73741 7.65478L2.51467 0.432035C1.93862 -0.144012 1.00808 -0.144012 0.432035 0.432035C-0.144012 1.00808 -0.144012 1.93862 0.432035 2.51467L7.65478 9.73741L0.432035 16.9602C-0.144012 17.5362 -0.144012 18.4667 0.432035 19.0428C1.00808 19.6188 1.93862 19.6188 2.51467 19.0428L9.73741 11.82L16.9602 19.0428C17.5362 19.6188 18.4667 19.6188 19.0428 19.0428C19.6188 18.4667 19.6188 17.5362 19.0428 16.9602L11.82 9.73741L19.0428 2.51467C19.6041 1.95339 19.6041 1.00808 19.0428 0.446806Z" fill="black" stroke="transparent"/>
</svg>
